<svg width="1440" height="900" viewBox="0 0 1440 900" fill="none" xmlns="http://www.w3.org/2000/svg">
<g filter="url(#filter0_f_205_7)">
<path d="M896.521 448.672C536.478 248.725 172.949 -129.705 26.2983 -147.025C-236.269 -178.036 -197.871 539.404 79.812 795.787C340.379 1036.37 2149.07 1282.66 1705.23 795.787C1469.1 536.763 1202.94 618.837 896.521 448.672Z" fill="#280075"/>
</g>
<g filter="url(#filter1_f_205_7)">
<path d="M712.521 617.672C352.478 417.725 -11.0509 39.2947 -157.702 21.9747C-420.269 -9.03559 -381.871 708.404 -104.188 964.787C156.379 1205.37 1965.07 1451.66 1521.23 964.787C1285.1 705.763 1018.94 787.837 712.521 617.672Z" fill="#4C00CF"/>
</g>
<g filter="url(#filter2_f_205_7)">
<path d="M852.953 982.837C932.803 897.621 448.345 342.57 139.479 136.469C-169.387 -69.6318 -145.194 415.755 114.835 662.675C331.262 868.193 773.102 1068.05 852.953 982.837Z" fill="#8F89FF"/>
<path d="M852.953 982.837C932.803 897.621 448.345 342.57 139.479 136.469C-169.387 -69.6318 -145.194 415.755 114.835 662.675C331.262 868.193 773.102 1068.05 852.953 982.837Z" stroke="#1D87FF" stroke-width="40"/>
</g>
<defs>
<filter id="filter0_f_205_7" x="-401" y="-398" width="2426" height="1724" filterUnits="userSpaceOnUse" color-interpolation-filters="sRGB">
<feFlood flood-opacity="0" result="BackgroundImageFix"/>
<feBlend mode="normal" in="SourceGraphic" in2="BackgroundImageFix" result="shape"/>
<feGaussianBlur stdDeviation="125" result="effect1_foregroundBlur_205_7"/>
</filter>
<filter id="filter1_f_205_7" x="-635" y="-279" width="2526" height="1824" filterUnits="userSpaceOnUse" color-interpolation-filters="sRGB">
<feFlood flood-opacity="0" result="BackgroundImageFix"/>
<feBlend mode="normal" in="SourceGraphic" in2="BackgroundImageFix" result="shape"/>
<feGaussianBlur stdDeviation="150" result="effect1_foregroundBlur_205_7"/>
</filter>
<filter id="filter2_f_205_7" x="-256.178" y="-83.3089" width="1287.88" height="1256.3" filterUnits="userSpaceOnUse" color-interpolation-filters="sRGB">
<feFlood flood-opacity="0" result="BackgroundImageFix"/>
<feBlend mode="normal" in="SourceGraphic" in2="BackgroundImageFix" result="shape"/>
<feGaussianBlur stdDeviation="75" result="effect1_foregroundBlur_205_7"/>
</filter>
</defs>
</svg>
